<svg xmlns="http://www.w3.org/2000/svg" viewBox="0 0 1200 800" width="1200" height="800"><style>*{vector-effect:non-scaling-stroke}g,path,rect,circle,ellipse,line,polyline,polygon{stroke:#1E1E1E;stroke-width:5;stroke-linecap:round;stroke-linejoin:round}.ns{stroke:none}</style><rect class="ns" width="1200" height="800" fill="#FFFFFF"/><path class="ns" d="M1034.0 440.0 C1047.6 507.9 998.3 628.9 926.0 672.9 C853.7 716.8 704.1 706.8 600.0 703.5 C495.9 700.2 370.0 697.0 301.7 653.1 C233.3 609.2 184.2 507.1 189.8 440.0 C195.3 372.9 266.6 298.8 334.9 250.7 C403.3 202.6 515.1 148.9 600.0 151.4 C684.9 153.9 771.9 217.4 844.2 265.5 C916.6 313.6 1020.4 372.1 1034.0 440.0z" fill="#E8F9B0"/><path d="M308 134 Q308 152 326 152 Q308 152 308 170 Q308 152 290 152 Q308 152 308 134z" fill="#FFFFFF"/><path d="M938 107 Q938 120 951 120 Q938 120 938 133 Q938 120 925 120 Q938 120 938 107z" fill="#FFFFFF"/><circle cx="1085" cy="280" r="7" fill="#FFFFFF"/><circle cx="148" cy="300" r="5" fill="#FFFFFF"/><line x1="90" y1="690" x2="1110" y2="690"/><g transform="translate(110 690) scale(1 1)"><path d="M0 0 C0 -40 8 -70 20 -96" fill="none"/><path d="M4 -34 C-22 -40 -30 -60 -26 -74 C-6 -70 4 -54 4 -34z" fill="#D9D9D9"/><path d="M10 -60 C34 -64 44 -84 40 -98 C20 -96 10 -80 10 -60z" fill="#D9D9D9"/><path d="M2 -12 C26 -14 36 -28 34 -40 C16 -40 4 -28 2 -12z" fill="#FFFFFF"/></g><g transform="translate(1090 690) scale(-1 1)"><path d="M0 0 C0 -40 8 -70 20 -96" fill="none"/><path d="M4 -34 C-22 -40 -30 -60 -26 -74 C-6 -70 4 -54 4 -34z" fill="#D9D9D9"/><path d="M10 -60 C34 -64 44 -84 40 -98 C20 -96 10 -80 10 -60z" fill="#D9D9D9"/><path d="M2 -12 C26 -14 36 -28 34 -40 C16 -40 4 -28 2 -12z" fill="#FFFFFF"/></g><g transform="translate(150 382) scale(2.9)"><circle cx="68" cy="40" r="12" fill="#FFFFFF"/><path d="M48 92 a20 22 0 0 1 40 0z" fill="#D9D9D9"/><circle cx="36" cy="34" r="14" fill="#FFFFFF"/><path d="M12 92 a24 26 0 0 1 48 0z" fill="#FFFFFF"/></g><g transform="translate(770 398) scale(2.9)"><path d="M50 26 C38 18 22 18 10 22 v58 c12 -4 28 -4 40 4z" fill="#FFFFFF"/><path d="M50 26 C62 18 78 18 90 22 v58 c-12 -4 -28 -4 -40 4z" fill="#FFFFFF"/><line x1="50" y1="26" x2="50" y2="84"/><line x1="18" y1="36" x2="42" y2="34"/><line x1="18" y1="46" x2="42" y2="44"/><line x1="18" y1="56" x2="36" y2="55"/><line x1="58" y1="34" x2="82" y2="36"/><line x1="58" y1="44" x2="82" y2="46"/></g><g transform="translate(385 250) scale(4.3)"><rect x="12" y="10" width="76" height="82" rx="4" fill="#FFFFFF"/><rect x="20" y="18" width="60" height="60" fill="#C9F03D"/><circle cx="40" cy="40" r="8" fill="#FFFFFF"/><path d="M26 78 a14 16 0 0 1 28 0z" fill="#FFFFFF"/><circle cx="62" cy="46" r="7" fill="#FFFFFF"/><path d="M50 78 a12 14 0 0 1 24 0z" fill="#FFFFFF"/></g></svg>