<svg xmlns="http://www.w3.org/2000/svg" viewBox="0 0 1200 800" width="1200" height="800"><style>*{vector-effect:non-scaling-stroke}g,path,rect,circle,ellipse,line,polyline,polygon{stroke:#1E1E1E;stroke-width:5;stroke-linecap:round;stroke-linejoin:round}.ns{stroke:none}</style><rect class="ns" width="1200" height="800" fill="#FFFFFF"/><path class="ns" d="M1030.7 440.0 C1032.8 503.4 944.4 581.9 872.6 634.7 C800.8 687.6 689.9 757.6 600.0 757.0 C510.1 756.3 401.8 683.5 333.0 630.7 C264.2 577.9 184.3 501.5 187.2 440.0 C190.2 378.5 281.8 304.4 350.6 261.9 C419.4 219.3 515.1 185.9 600.0 184.7 C684.9 183.4 788.2 211.7 860.0 254.3 C931.8 296.8 1028.6 376.6 1030.7 440.0z" fill="#E8F9B0"/><path d="M274 139 Q274 157 292 157 Q274 157 274 175 Q274 157 256 157 Q274 157 274 139z" fill="#FFFFFF"/><path d="M975 118 Q975 131 988 131 Q975 131 975 144 Q975 131 962 131 Q975 131 975 118z" fill="#FFFFFF"/><circle cx="1065" cy="280" r="7" fill="#FFFFFF"/><circle cx="133" cy="300" r="5" fill="#FFFFFF"/><line x1="90" y1="690" x2="1110" y2="690"/><g transform="translate(110 690) scale(1 1)"><path d="M0 0 C0 -40 8 -70 20 -96" fill="none"/><path d="M4 -34 C-22 -40 -30 -60 -26 -74 C-6 -70 4 -54 4 -34z" fill="#D9D9D9"/><path d="M10 -60 C34 -64 44 -84 40 -98 C20 -96 10 -80 10 -60z" fill="#D9D9D9"/><path d="M2 -12 C26 -14 36 -28 34 -40 C16 -40 4 -28 2 -12z" fill="#FFFFFF"/></g><g transform="translate(1090 690) scale(-1 1)"><path d="M0 0 C0 -40 8 -70 20 -96" fill="none"/><path d="M4 -34 C-22 -40 -30 -60 -26 -74 C-6 -70 4 -54 4 -34z" fill="#D9D9D9"/><path d="M10 -60 C34 -64 44 -84 40 -98 C20 -96 10 -80 10 -60z" fill="#D9D9D9"/><path d="M2 -12 C26 -14 36 -28 34 -40 C16 -40 4 -28 2 -12z" fill="#FFFFFF"/></g><g transform="translate(150 378) scale(2.9)"><g transform="rotate(-40 50 50)"><rect x="8" y="42" width="10" height="16" rx="2" fill="#D9D9D9"/><rect x="18" y="42" width="54" height="16" fill="#FFFFFF"/><line x1="18" y1="50" x2="72" y2="50"/><polygon points="72,42 90,50 72,58" fill="#FFFFFF"/><polygon points="84,47.3 90,50 84,52.7" fill="#1E1E1E"/></g></g><g transform="translate(770 402) scale(2.9)"><path d="M50 88 C20 66 8 48 8 32 a20 20 0 0 1 42 -10 a20 20 0 0 1 42 10 c0 16 -12 34 -42 56z" fill="#FFFFFF"/><polyline points="14,48 32,48 38,36 46,62 54,40 60,48 86,48" fill="none"/></g><g transform="translate(385 250) scale(4.3)"><rect x="12" y="12" width="76" height="84" rx="7" fill="#C9F03D"/><rect x="18" y="22" width="64" height="68" rx="3" fill="#FFFFFF"/><rect x="36" y="8" width="28" height="12" rx="3" fill="#D9D9D9"/><rect x="24" y="32" width="14" height="14" rx="2" fill="#C9F03D"/><path d="M27 39 l4 4 l7 -9" fill="none"/><line x1="46" y1="39" x2="74" y2="39"/><rect x="24" y="52" width="14" height="14" rx="2" fill="#FFFFFF"/><path d="M27 59 l4 4 l7 -9" fill="none"/><line x1="46" y1="59" x2="70" y2="59"/><rect x="24" y="72" width="14" height="14" rx="2" fill="#FFFFFF"/><line x1="46" y1="79" x2="66" y2="79"/></g></svg>