<svg xmlns="http://www.w3.org/2000/svg" viewBox="0 0 1200 800" width="1200" height="800"><style>*{vector-effect:non-scaling-stroke}g,path,rect,circle,ellipse,line,polyline,polygon{stroke:#1E1E1E;stroke-width:5;stroke-linecap:round;stroke-linejoin:round}.ns{stroke:none}</style><rect class="ns" width="1200" height="800" fill="#FFFFFF"/><path class="ns" d="M954.4 440.0 C957.6 514.2 980.5 626.1 921.4 669.6 C862.3 713.0 697.5 707.6 600.0 700.8 C502.5 693.9 396.8 671.8 336.3 628.3 C275.8 584.9 244.2 508.0 236.9 440.0 C229.6 372.0 231.9 270.6 292.4 220.3 C353.0 170.0 498.4 137.5 600.0 138.2 C701.6 138.8 843.0 173.9 902.1 224.2 C961.1 274.6 951.2 365.8 954.4 440.0z" fill="#E8F9B0"/><path d="M308 123 Q308 141 326 141 Q308 141 308 159 Q308 141 290 141 Q308 141 308 123z" fill="#FFFFFF"/><path d="M925 117 Q925 130 938 130 Q925 130 925 143 Q925 130 912 130 Q925 130 925 117z" fill="#FFFFFF"/><circle cx="1088" cy="280" r="7" fill="#FFFFFF"/><circle cx="135" cy="300" r="5" fill="#FFFFFF"/><line x1="90" y1="690" x2="1110" y2="690"/><g transform="translate(110 690) scale(1 1)"><path d="M0 0 C0 -40 8 -70 20 -96" fill="none"/><path d="M4 -34 C-22 -40 -30 -60 -26 -74 C-6 -70 4 -54 4 -34z" fill="#D9D9D9"/><path d="M10 -60 C34 -64 44 -84 40 -98 C20 -96 10 -80 10 -60z" fill="#D9D9D9"/><path d="M2 -12 C26 -14 36 -28 34 -40 C16 -40 4 -28 2 -12z" fill="#FFFFFF"/></g><g transform="translate(1090 690) scale(-1 1)"><path d="M0 0 C0 -40 8 -70 20 -96" fill="none"/><path d="M4 -34 C-22 -40 -30 -60 -26 -74 C-6 -70 4 -54 4 -34z" fill="#D9D9D9"/><path d="M10 -60 C34 -64 44 -84 40 -98 C20 -96 10 -80 10 -60z" fill="#D9D9D9"/><path d="M2 -12 C26 -14 36 -28 34 -40 C16 -40 4 -28 2 -12z" fill="#FFFFFF"/></g><g transform="translate(150 383) scale(2.9)"><path d="M50 26 C38 18 22 18 10 22 v58 c12 -4 28 -4 40 4z" fill="#FFFFFF"/><path d="M50 26 C62 18 78 18 90 22 v58 c-12 -4 -28 -4 -40 4z" fill="#FFFFFF"/><line x1="50" y1="26" x2="50" y2="84"/><line x1="18" y1="36" x2="42" y2="34"/><line x1="18" y1="46" x2="42" y2="44"/><line x1="18" y1="56" x2="36" y2="55"/><line x1="58" y1="34" x2="82" y2="36"/><line x1="58" y1="44" x2="82" y2="46"/></g><g transform="translate(770 397) scale(2.9)"><path d="M20 46 L16 60 L32 46z" fill="#FFFFFF"/><rect x="6" y="10" width="58" height="38" rx="9" fill="#FFFFFF"/><circle cx="23" cy="29" r="2.5" fill="#1E1E1E"/><circle cx="35" cy="29" r="2.5" fill="#1E1E1E"/><circle cx="47" cy="29" r="2.5" fill="#1E1E1E"/><path d="M80 76 L86 90 L68 76z" fill="#FFFFFF"/><rect x="38" y="44" width="56" height="34" rx="9" fill="#FFFFFF"/><line x1="50" y1="57" x2="82" y2="57"/><line x1="50" y1="66" x2="72" y2="66"/></g><g transform="translate(385 250) scale(4.3)"><path d="M36 32 v-10 h28 v10" fill="none"/><rect x="10" y="32" width="80" height="54" rx="6" fill="#C9F03D"/><line x1="10" y1="56" x2="90" y2="56"/><rect x="44" y="50" width="12" height="12" rx="2" fill="#FFFFFF"/></g></svg>