<svg xmlns="http://www.w3.org/2000/svg" viewBox="0 0 1200 800" width="1200" height="800"><style>*{vector-effect:non-scaling-stroke}g,path,rect,circle,ellipse,line,polyline,polygon{stroke:#1E1E1E;stroke-width:5;stroke-linecap:round;stroke-linejoin:round}.ns{stroke:none}</style><rect class="ns" width="1200" height="800" fill="#FFFFFF"/><path class="ns" d="M958.9 440.0 C956.6 506.5 932.5 586.2 872.7 634.8 C812.8 683.3 692.8 730.2 600.0 731.6 C507.2 733.0 391.4 691.6 315.7 643.1 C240.0 594.5 145.2 507.3 145.7 440.0 C146.3 372.7 243.2 286.6 318.9 239.2 C394.6 191.9 505.5 156.5 600.0 155.9 C694.5 155.3 826.2 188.3 886.0 235.7 C945.8 283.0 961.1 373.5 958.9 440.0z" fill="#E8F9B0"/><path d="M306 131 Q306 149 324 149 Q306 149 306 167 Q306 149 288 149 Q306 149 306 131z" fill="#FFFFFF"/><path d="M971 134 Q971 147 984 147 Q971 147 971 160 Q971 147 958 147 Q971 147 971 134z" fill="#FFFFFF"/><circle cx="1079" cy="280" r="7" fill="#FFFFFF"/><circle cx="115" cy="300" r="5" fill="#FFFFFF"/><line x1="90" y1="690" x2="1110" y2="690"/><g transform="translate(110 690) scale(1 1)"><path d="M0 0 C0 -40 8 -70 20 -96" fill="none"/><path d="M4 -34 C-22 -40 -30 -60 -26 -74 C-6 -70 4 -54 4 -34z" fill="#D9D9D9"/><path d="M10 -60 C34 -64 44 -84 40 -98 C20 -96 10 -80 10 -60z" fill="#D9D9D9"/><path d="M2 -12 C26 -14 36 -28 34 -40 C16 -40 4 -28 2 -12z" fill="#FFFFFF"/></g><g transform="translate(1090 690) scale(-1 1)"><path d="M0 0 C0 -40 8 -70 20 -96" fill="none"/><path d="M4 -34 C-22 -40 -30 -60 -26 -74 C-6 -70 4 -54 4 -34z" fill="#D9D9D9"/><path d="M10 -60 C34 -64 44 -84 40 -98 C20 -96 10 -80 10 -60z" fill="#D9D9D9"/><path d="M2 -12 C26 -14 36 -28 34 -40 C16 -40 4 -28 2 -12z" fill="#FFFFFF"/></g><g transform="translate(150 372) scale(2.9)"><path d="M20 46 L16 60 L32 46z" fill="#FFFFFF"/><rect x="6" y="10" width="58" height="38" rx="9" fill="#FFFFFF"/><circle cx="23" cy="29" r="2.5" fill="#1E1E1E"/><circle cx="35" cy="29" r="2.5" fill="#1E1E1E"/><circle cx="47" cy="29" r="2.5" fill="#1E1E1E"/><path d="M80 76 L86 90 L68 76z" fill="#FFFFFF"/><rect x="38" y="44" width="56" height="34" rx="9" fill="#FFFFFF"/><line x1="50" y1="57" x2="82" y2="57"/><line x1="50" y1="66" x2="72" y2="66"/></g><g transform="translate(770 408) scale(2.9)"><path d="M50 26 C38 18 22 18 10 22 v58 c12 -4 28 -4 40 4z" fill="#FFFFFF"/><path d="M50 26 C62 18 78 18 90 22 v58 c-12 -4 -28 -4 -40 4z" fill="#FFFFFF"/><line x1="50" y1="26" x2="50" y2="84"/><line x1="18" y1="36" x2="42" y2="34"/><line x1="18" y1="46" x2="42" y2="44"/><line x1="18" y1="56" x2="36" y2="55"/><line x1="58" y1="34" x2="82" y2="36"/><line x1="58" y1="44" x2="82" y2="46"/></g><g transform="translate(385 250) scale(4.3)"><g transform="rotate(45 74 74)"><rect x="66" y="60" width="16" height="34" rx="6" fill="#D9D9D9"/></g><circle cx="42" cy="42" r="30" fill="#C9F03D"/><circle cx="42" cy="42" r="21" fill="#FFFFFF"/><path d="M30 36 a14 14 0 0 1 12 -8" fill="none"/></g></svg>