<svg xmlns="http://www.w3.org/2000/svg" viewBox="0 0 1200 800" width="1200" height="800"><style>*{vector-effect:non-scaling-stroke}g,path,rect,circle,ellipse,line,polyline,polygon{stroke:#1E1E1E;stroke-width:5;stroke-linecap:round;stroke-linejoin:round}.ns{stroke:none}</style><rect class="ns" width="1200" height="800" fill="#FFFFFF"/><path class="ns" d="M1025.5 440.0 C1014.3 508.7 925.8 574.6 854.9 622.1 C784.0 669.6 683.5 725.9 600.0 724.9 C516.5 723.9 418.9 663.4 353.8 615.9 C288.6 568.4 218.1 505.1 209.0 440.0 C200.0 374.9 234.2 275.4 299.3 225.2 C364.5 175.1 496.2 141.8 600.0 139.2 C703.8 136.7 851.1 159.8 922.1 210.0 C993.0 260.1 1036.7 371.3 1025.5 440.0z" fill="#E8F9B0"/><path d="M251 124 Q251 142 269 142 Q251 142 251 160 Q251 142 233 142 Q251 142 251 124z" fill="#FFFFFF"/><path d="M946 104 Q946 117 959 117 Q946 117 946 130 Q946 117 933 117 Q946 117 946 104z" fill="#FFFFFF"/><circle cx="1085" cy="280" r="7" fill="#FFFFFF"/><circle cx="148" cy="300" r="5" fill="#FFFFFF"/><line x1="90" y1="690" x2="1110" y2="690"/><g transform="translate(110 690) scale(1 1)"><path d="M0 0 C0 -40 8 -70 20 -96" fill="none"/><path d="M4 -34 C-22 -40 -30 -60 -26 -74 C-6 -70 4 -54 4 -34z" fill="#D9D9D9"/><path d="M10 -60 C34 -64 44 -84 40 -98 C20 -96 10 -80 10 -60z" fill="#D9D9D9"/><path d="M2 -12 C26 -14 36 -28 34 -40 C16 -40 4 -28 2 -12z" fill="#FFFFFF"/></g><g transform="translate(1090 690) scale(-1 1)"><path d="M0 0 C0 -40 8 -70 20 -96" fill="none"/><path d="M4 -34 C-22 -40 -30 -60 -26 -74 C-6 -70 4 -54 4 -34z" fill="#D9D9D9"/><path d="M10 -60 C34 -64 44 -84 40 -98 C20 -96 10 -80 10 -60z" fill="#D9D9D9"/><path d="M2 -12 C26 -14 36 -28 34 -40 C16 -40 4 -28 2 -12z" fill="#FFFFFF"/></g><g transform="translate(150 377) scale(2.9)"><g transform="rotate(-40 50 50)"><rect x="8" y="42" width="10" height="16" rx="2" fill="#D9D9D9"/><rect x="18" y="42" width="54" height="16" fill="#FFFFFF"/><line x1="18" y1="50" x2="72" y2="50"/><polygon points="72,42 90,50 72,58" fill="#FFFFFF"/><polygon points="84,47.3 90,50 84,52.7" fill="#1E1E1E"/></g></g><g transform="translate(770 403) scale(2.9)"><line x1="50" y1="18" x2="50" y2="84"/><polygon points="38,92 62,92 56,84 44,84" fill="#FFFFFF"/><line x1="16" y1="26" x2="84" y2="26"/><circle cx="50" cy="18" r="5" fill="#FFFFFF"/><path d="M16 26 L6 56 M16 26 L26 56" fill="none"/><path d="M4 56 h24 a12 8 0 0 1 -24 0z" fill="#FFFFFF"/><path d="M84 26 L74 50 M84 26 L94 50" fill="none"/><path d="M72 50 h24 a12 8 0 0 1 -24 0z" fill="#FFFFFF"/></g><g transform="translate(385 250) scale(4.3)"><path d="M20 46 L16 60 L32 46z" fill="#C9F03D"/><rect x="6" y="10" width="58" height="38" rx="9" fill="#C9F03D"/><circle cx="23" cy="29" r="2.5" fill="#1E1E1E"/><circle cx="35" cy="29" r="2.5" fill="#1E1E1E"/><circle cx="47" cy="29" r="2.5" fill="#1E1E1E"/><path d="M80 76 L86 90 L68 76z" fill="#FFFFFF"/><rect x="38" y="44" width="56" height="34" rx="9" fill="#FFFFFF"/><line x1="50" y1="57" x2="82" y2="57"/><line x1="50" y1="66" x2="72" y2="66"/></g></svg>