<svg xmlns="http://www.w3.org/2000/svg" viewBox="0 0 1200 800" width="1200" height="800"><style>*{vector-effect:non-scaling-stroke}g,path,rect,circle,ellipse,line,polyline,polygon{stroke:#1E1E1E;stroke-width:5;stroke-linecap:round;stroke-linejoin:round}.ns{stroke:none}</style><rect class="ns" width="1200" height="800" fill="#FFFFFF"/><path class="ns" d="M1014.4 440.0 C1023.2 507.8 980.4 613.3 911.3 662.4 C842.3 711.5 696.9 739.6 600.0 734.6 C503.1 729.7 402.6 681.8 330.2 632.7 C257.8 583.6 174.0 510.4 165.4 440.0 C156.7 369.6 205.8 265.4 278.2 210.2 C350.7 154.9 503.3 101.1 600.0 108.7 C696.7 116.3 789.2 200.3 858.2 255.6 C927.3 310.8 1005.5 372.2 1014.4 440.0z" fill="#E8F9B0"/><path d="M252 127 Q252 145 270 145 Q252 145 252 163 Q252 145 234 145 Q252 145 252 127z" fill="#FFFFFF"/><path d="M965 132 Q965 145 978 145 Q965 145 965 158 Q965 145 952 145 Q965 145 965 132z" fill="#FFFFFF"/><circle cx="1086" cy="280" r="7" fill="#FFFFFF"/><circle cx="127" cy="300" r="5" fill="#FFFFFF"/><line x1="90" y1="690" x2="1110" y2="690"/><g transform="translate(110 690) scale(1 1)"><path d="M0 0 C0 -40 8 -70 20 -96" fill="none"/><path d="M4 -34 C-22 -40 -30 -60 -26 -74 C-6 -70 4 -54 4 -34z" fill="#D9D9D9"/><path d="M10 -60 C34 -64 44 -84 40 -98 C20 -96 10 -80 10 -60z" fill="#D9D9D9"/><path d="M2 -12 C26 -14 36 -28 34 -40 C16 -40 4 -28 2 -12z" fill="#FFFFFF"/></g><g transform="translate(1090 690) scale(-1 1)"><path d="M0 0 C0 -40 8 -70 20 -96" fill="none"/><path d="M4 -34 C-22 -40 -30 -60 -26 -74 C-6 -70 4 -54 4 -34z" fill="#D9D9D9"/><path d="M10 -60 C34 -64 44 -84 40 -98 C20 -96 10 -80 10 -60z" fill="#D9D9D9"/><path d="M2 -12 C26 -14 36 -28 34 -40 C16 -40 4 -28 2 -12z" fill="#FFFFFF"/></g><g transform="translate(150 386) scale(2.9)"><line x1="50" y1="18" x2="50" y2="84"/><polygon points="38,92 62,92 56,84 44,84" fill="#FFFFFF"/><line x1="16" y1="26" x2="84" y2="26"/><circle cx="50" cy="18" r="5" fill="#FFFFFF"/><path d="M16 26 L6 56 M16 26 L26 56" fill="none"/><path d="M4 56 h24 a12 8 0 0 1 -24 0z" fill="#FFFFFF"/><path d="M84 26 L74 50 M84 26 L94 50" fill="none"/><path d="M72 50 h24 a12 8 0 0 1 -24 0z" fill="#FFFFFF"/></g><g transform="translate(770 394) scale(2.9)"><path d="M50 26 C38 18 22 18 10 22 v58 c12 -4 28 -4 40 4z" fill="#FFFFFF"/><path d="M50 26 C62 18 78 18 90 22 v58 c-12 -4 -28 -4 -40 4z" fill="#FFFFFF"/><line x1="50" y1="26" x2="50" y2="84"/><line x1="18" y1="36" x2="42" y2="34"/><line x1="18" y1="46" x2="42" y2="44"/><line x1="18" y1="56" x2="36" y2="55"/><line x1="58" y1="34" x2="82" y2="36"/><line x1="58" y1="44" x2="82" y2="46"/></g><g transform="translate(385 250) scale(4.3)"><path d="M20 46 L16 60 L32 46z" fill="#C9F03D"/><rect x="6" y="10" width="58" height="38" rx="9" fill="#C9F03D"/><circle cx="23" cy="29" r="2.5" fill="#1E1E1E"/><circle cx="35" cy="29" r="2.5" fill="#1E1E1E"/><circle cx="47" cy="29" r="2.5" fill="#1E1E1E"/><path d="M80 76 L86 90 L68 76z" fill="#FFFFFF"/><rect x="38" y="44" width="56" height="34" rx="9" fill="#FFFFFF"/><line x1="50" y1="57" x2="82" y2="57"/><line x1="50" y1="66" x2="72" y2="66"/></g></svg>